# xmcd
#
# Track frame offsets: 
#        150
#        18142
#        33878
#        53218
#        69286
#        87803
#        104396
#        126037
#        149435
#        175493
#        195762
#        211597
#        229505
#        252257
#
# Disc length: 3581 seconds
#
# Revision: 0
# Processed by: cddbd v1.5.2PL0 Copyright (c) Steve Scherf et al.
# Submitted via: ExactAudioCopy v1.0b3
#
DISCID=ab0dfb0e
DTITLE=Leif Strand, Lars Hägglund, Jönköpings Sinfonietta - Gryning (H
DTITLE=armoni och vila i folkton)
DYEAR=2009
DGENRE=Classical
TTITLE0=Ensam vals
TTITLE1=Fjärilens vals
TTITLE2=Skogens vals
TTITLE3=Solkatternas vals
TTITLE4=Klaras vals
TTITLE5=Vilans vals
TTITLE6=Barnens vals
TTITLE7=Gryningens vals
TTITLE8=Dyningarnas vals
TTITLE9=Liten vals
TTITLE10=Vågens vals
TTITLE11=Springvals
TTITLE12=Vals elegi
TTITLE13=Evas vals
EXTD=
EXTT0=
EXTT1=
EXTT2=
EXTT3=
EXTT4=
EXTT5=
EXTT6=
EXTT7=
EXTT8=
EXTT9=
EXTT10=
EXTT11=
EXTT12=
EXTT13=
PLAYORDER=
